<?xml version="1.0" encoding="utf-8"?>
<!-- Generator: Adobe Illustrator 16.0.0, SVG Export Plug-In . SVG Version: 6.00 Build 0)  -->
<!DOCTYPE svg PUBLIC "-//W3C//DTD SVG 1.1//EN" "http://www.w3.org/Graphics/SVG/1.1/DTD/svg11.dtd">
<svg version="1.2" baseProfile="tiny" id="Layer_1_cache7" xmlns="http://www.w3.org/2000/svg" xmlns:xlink="http://www.w3.org/1999/xlink" x="0px" y="0px" width="100%" height="100%" viewBox="0 0 330 75" xml:space="preserve" fit="" preserveAspectRatio="xMidYMid meet" focusable="false">
<g fill="#fff">
	<path d="M89.716,3.33c-0.114,4.681,0.229,9.819-0.173,14.212c-1.809-0.191-3.444-1.487-5.546-1.906
		c-11.841-2.364-21.833,3.33-19.933,16.119c1.67,11.242,14.892,13.764,25.479,8.32c0.402,4.335,0.06,9.414,0.173,14.039
		c-7.984,3.489-22.462,3.4-29.985-0.52C49.692,48.363,45.192,36.13,47.598,23.089c1.02-5.529,3.849-10.31,7.626-13.867
		c4.811-4.529,10.434-7.025,19.239-7.626C79.766,1.235,85.464,1.753,89.716,3.33z"></path>
	<path d="M261.309,3.157c0.351,0.867,0.182,2.567,0,3.466c-1.796-0.172-3.545-1.25-5.2-1.56
		c-9.007-1.688-17.707,1.981-16.466,11.265c0.646,4.832,4.507,6.843,8.146,9.187c6.579,4.236,17.879,8.311,15.599,20.452
		c-1.99,10.603-17.063,13.352-27.732,7.974c-0.24-1.061-0.603-2.823-0.172-3.986c1.448-0.047,2.371,1.186,3.639,1.733
		c9.191,3.959,23.866,0.593,20.28-11.787c-0.315-1.084-1.017-2.097-1.733-2.947c-5.912-7.007-20.489-9.13-21.839-19.759
		C234.094,3.53,249.479-1.603,261.309,3.157z"></path>
	<path d="M95.262,2.291c5.088,0.111,10.625-0.228,15.426,0.172c0.404,13.116,0.058,26.98,0.173,40.385
		c5.388,0.91,12.699-0.102,18.373,0.521c0,4.045,0,8.089,0,12.133c-11.094,0.289-23.399,0.289-34.492,0c0-17.564,0-35.127,0-52.691
		C94.839,2.56,95.013,2.387,95.262,2.291z"></path>
	<path d="M132.701,2.291c5.086,0.113,10.629-0.229,15.426,0.172c0.851,8.398-0.53,21.759,0.173,31.026
		c0.299,3.947,1.671,7.89,4.853,9.012c5.98,2.108,9.582-2.678,10.053-8.493c0.815-10.079-0.76-21.79,0.174-31.545
		c4.862-0.179,11.371-0.51,15.945,0.173c-0.82,17.956,3.079,38.99-6.067,48.184c-4.793,4.821-14.057,7.053-23.571,5.548
		c-10.319-1.635-16.333-9.121-17.333-19.759c-0.968-10.297,0.359-21.979-0.174-33.799C132.278,2.56,132.451,2.387,132.701,2.291z"></path>
	<path d="M186.604,2.291c12.533,0.762,30.517-2.097,38.651,3.465c3.436,2.35,6.492,9.135,3.467,14.56
		c-0.897,1.61-2.674,3.313-4.331,4.333c-1.53,0.939-3.502,1.103-4.855,2.426c5.991,1.52,11.24,4.572,12.133,10.746
		c0.864,5.977-2.114,11.21-5.373,13.693c-8.444,6.435-26.801,3.668-40.384,3.986c0.114-17.564-0.231-35.589,0.173-52.865
		C186.212,2.475,186.399,2.374,186.604,2.291z M212.604,19.796c1.811-5.621-4.104-7.344-10.053-6.759
		c-0.798,2.61-0.124,6.693-0.347,9.878C206.849,23.475,211.545,23.084,212.604,19.796z M213.817,42.329
		c1.508-2.196,0.917-5.263-0.692-6.761c-2.222-2.065-6.596-1.505-10.574-1.56c-0.691,2.905-0.345,7.726-0.174,10.919
		C207.372,44.955,211.918,45.089,213.817,42.329z"></path>
	<path d="M327.866,18.582c0.239,0.894,0.311,2.759,0,3.64c-2.979-1.349-6.125-2.731-9.707-2.426
		c-5.613,0.478-10.015,6.745-5.547,11.612c4.85,5.282,17.986,5.171,16.468,16.467c-1.163,8.635-14.362,11.236-21.84,6.239
		c-0.317-1.128-0.382-2.508-0.348-3.986c2.304,1.094,5.729,3.353,9.706,3.467c3.685,0.104,7.408-1.281,8.494-4.334
		c0.792-2.23,0.334-5.477-1.214-7.106c-4.833-5.091-18.695-5.454-16.465-17.332C308.831,17.268,319.734,14.51,327.866,18.582z"></path>
	<path d="M25.412,30.195c1.629-4.322,3.461-8.441,5.374-12.479c5.323-0.289,11.837-0.289,17.159,0
		c-3.832,6.104-8.205,11.667-12.132,17.678c3.885,6.919,8.304,13.303,12.132,20.279c-6.066,0-12.132,0-18.199,0
		c-1.844-4.107-4.014-7.888-5.547-12.306c-2.056,3.953-3.571,8.446-5.72,12.306c-5.893,0-11.786,0-17.679,0
		c0.389-1.817,1.775-3.318,2.773-4.854c2.982-4.585,6.392-9.302,9.186-14.211C9.72,30.403,4.448,24.006,1.494,17.717
		c5.548-0.29,12.303-0.29,17.852,0C21.733,21.511,23.103,26.322,25.412,30.195z"></path>
	<path d="M272.921,17.717c4.214,11.038,8.046,22.459,12.479,33.277c4.444-11.04,8.709-22.258,13.174-33.277
		c0.893-0.243,2.757-0.312,3.639,0c-4.639,11.804-10.823,26.906-15.946,39.689c-2.88,7.189-5.313,17.865-16.465,15.948
		c-0.523-0.75-0.304-2.239-0.348-3.468c6.284,1.775,8.938-2.29,10.921-6.934c1.065-2.496,2.346-5.058,2.773-6.759
		c0.547-2.187-2.461-7.878-3.294-10.053c-2.448-6.389-4.73-12.24-7.105-18.546c-1.283-3.402-2.572-6.62-3.469-9.533
		c-0.252-0.077,0.02-0.153,0-0.346c0.142-0.033,0.173-0.175,0.347-0.174C270.728,17.599,272.086,17.396,272.921,17.717z"></path>
</g>
</svg>
